PathFileType	4	(X/Y/Z)	C:/Users/beibeiliu/ov580/test_trc/User3\out6_training_dense_left.trc
DataRate	CameraRate	NumFrames	NumMarkers	Units	OrigDataRate	OrigDataStartFrame	OrigNumFrames
120	120	11	19	mm	120	313	500
Frame#	Time	ThumbCMC			ThumbMCP			ThumbIP			ThumbTip			IndexMCP			IndexPIP			IndexTip			MiddleMCP			MiddlePIP			MiddleTip			RingMCP			RingPIP			RingTip			PinkyMCP			PinkyPIP			PinkyTip			BackHand1			BackHand2			BackHand3	
		X0	Y0	Z0	X1	Y1	Z1	X2	Y2	Z2	X3	Y3	Z3	X4	Y4	Z4	X5	Y5	Z5	X6	Y6	Z6	X7	Y7	Z7	X8	Y8	Z8	X9	Y9	Z9	X10	Y10	Z10	X11	Y11	Z11	X12	Y12	Z12	X13	Y13	Z13	X14	Y14	Z14	X15	Y15	Z15	X16	Y16	Z16	X17	Y17	Z17	X18	Y18	Z18	
312	2.6	-207.844	-53.3082	45.1343	-221.15	-37.3155	24.9375	-232.672	-21.801	4.3409	-233.809	-5.22001	-16.8785	-191.641	-43.3927	-30.3878	-196.322	-15.4104	-46.2891	-196.012	14.0751	-43.751	-160.78	-52.7941	-33.8159	-166.487	-33.8484	-63.5213	-167.861	0.591071	-75.6113	-142.039	-45.3243	-26.297	-141.407	-29.1474	-48.8411	-144.698	0.613223	-59.2709	-124.419	-33.704	-10.7145	-121.087	-14.0983	-25.4248	-118.519	8.11869	-33.6885	-143.935	-67.7002	21.6936	-143.493	-73.4693	53.5016	-177.342	-74.5005	36.3893	
313	2.60833	-208.847	-50.9056	47.0231	-220.972	-32.4575	27.5595	-231.777	-12.0279	0.49199	-234.374	4.57842	-14.8908	-190.182	-50.2289	-29.5799	-192.887	-31.2072	-54.6857	-197.759	-1.41936	-62.6668	-163.089	-56.4431	-34.7181	-156.808	-43.0798	-63.6952	-161.554	-16.0577	-87.2158	-140.989	-43.3159	-26.854	-134.417	-25.6379	-47.0325	-139.086	0.72544	-61.9986	-125.695	-30.845	-5.11562	-121.165	-9.5925	-21.8789	-124.116	15.1069	-28.1022	-146.384	-68.5747	20.5139	-144.262	-74.9418	53.5602	-178.438	-74.6616	33.7149	
314	2.61667	-206.823	-48.0915	44.7034	-218.396	-23.635	23.8145	-229.476	-3.57192	5.62444	-225.655	14.9754	-10.6217	-187.507	-54.5588	-29.618	-191.811	-42.9348	-59.0734	-198.258	-19.6256	-77.542	-158.271	-56.6605	-32.5079	-156.598	-49.3032	-63.052	-157.119	-29.2054	-91.0735	-137.293	-41.6797	-23.0439	-138.42	-25.7639	-46.0651	-138.08	1.05545	-59.3716	-126.114	-27.3937	-8.08508	-122.448	-6.31904	-16.4462	-128.086	21.0099	-20.6258	-143.077	-65.4743	20.3984	-144.049	-72.4588	53.9258	-174.894	-72.7229	31.7761	
315	2.625	-206.968	-43.4063	42.5714	-215.097	-16.6823	23.7513	-221.005	4.89141	5.60355	-218.306	25.8825	-14.7305	-188.662	-56.7156	-35.1952	-195.345	-51.5196	-62.0984	-199.871	-35.7159	-84.0941	-158.747	-58.6542	-37.8576	-155.956	-53.5304	-66.867	-151.133	-36.8466	-93.6254	-139.671	-40.1964	-25.9318	-136.181	-19.3318	-47.3174	-136.042	8.0085	-55.0284	-126.669	-24.5808	-7.93331	-129.158	0.924216	-15.9713	-140.36	26.2545	-10.6061	-147.552	-66.4299	21.4587	-144.456	-71.8767	51.3531	-176.261	-72.5797	32.0366	
316	2.63333	-203.371	-37.5245	39.8313	-208.14	-10.8212	18.7127	-214.924	13.7768	-1.74513	-203.355	28.8803	-13.0545	-188.936	-57.7749	-29.0249	-192.269	-56.7002	-59.1941	-201.402	-42.7863	-87.1588	-160.133	-61.5166	-35.4165	-152.351	-57.4209	-64.5495	-148.641	-41.1628	-96.3372	-136.914	-39.8887	-28.843	-133.678	-19.8179	-47.1111	-133.847	10.1158	-49.9384	-123.216	-22.3005	-9.66909	-128.711	2.05446	-11.847	-143.191	21.7307	-4.70837	-147.612	-67.4426	22.2878	-148.988	-73.2442	51.9441	-181.318	-71.7432	30.3011	
317	2.64167	-203.88	-29.9995	38.0083	-202.197	-2.97685	19.3671	-201.045	20.3556	-3.62928	-185.462	34.6216	-20.5769	-188.348	-57.6493	-33.2427	-194.632	-56.2104	-59.4641	-197.055	-42.6252	-88.3771	-157.925	-64.1613	-32.588	-158.209	-60.7111	-67.3148	-147.385	-44.7417	-92.6094	-136.319	-42.9582	-29.316	-134.246	-22.6619	-47.6979	-132.776	10.3086	-45.2446	-122.903	-29.0282	-8.87442	-127.421	-0.569034	-11.3552	-142.061	21.0016	2.22961	-147.452	-70.3826	22.3783	-151.018	-71.1203	51.7547	-182.05	-66.2379	30.7751	
318	2.65	-199.8	-22.0756	37.1217	-193.604	3.87315	16.9652	-184.569	24.6307	-8.19	-164.907	30.786	-21.0575	-192.387	-53.3211	-33.6429	-202.173	-49.7482	-59.5858	-199.796	-38.2046	-85.3217	-165.179	-64.2419	-38.4923	-156.063	-61.8438	-66.0305	-148.32	-38.7325	-92.5673	-141.51	-47.2124	-27.437	-130.645	-23.2604	-47.8075	-128.758	10.3151	-37.6014	-120.988	-33.9884	-8.95485	-124.652	-6.26301	-11.5654	-133.291	11.3579	6.33673	-151.504	-69.365	23.2301	-154.37	-69.6195	52.8107	-185.578	-63.4403	33.2081	
319	2.65833	-193.734	-12.1115	34.197	-183.42	12.9157	14.6703	-168.535	29.2252	-11.225	-146.313	26.4903	-22.2437	-198.423	-44.9888	-32.5633	-201.734	-42.2459	-59.1629	-195.874	-25.6189	-85.4128	-166.737	-63.9811	-38.3632	-162.503	-56.5434	-70.3766	-148.065	-31.8387	-88.1261	-142.959	-48.5348	-31.046	-129.946	-27.742	-46.289	-122.763	2.96927	-32.3725	-125.735	-39.3731	-11.7153	-115.995	-12.6067	-10.1724	-126.563	5.49139	12.6258	-156.616	-67.3572	17.438	-160.936	-67.8266	51.4318	-187.341	-56.8408	32.1449	
320	2.66667	-185.581	-6.22579	37.6033	-169.326	16.3727	9.55454	-151.893	26.9365	-13.5699	-129.26	17.2872	-27.1637	-196.941	-36.4942	-29.4997	-206.292	-28.7033	-60.4196	-194.178	-6.81749	-83.2579	-175.184	-56.7883	-35.6657	-170.055	-49.0376	-70.5934	-144.785	-24.2538	-79.6684	-147.779	-49.8117	-34.4475	-128.632	-29.3784	-47.2748	-120.603	-2.71648	-24.3585	-127.239	-46.2049	-14.2191	-118.14	-18.5784	-14.6001	-121.298	-3.90798	14.9957	-163.125	-68.4247	17.8416	-166.482	-66.7796	50.1338	-191.114	-45.9923	34.5184	
321	2.675	-178.839	1.35294	33.1499	-159.156	24.9938	11.8756	-140.882	29.5007	-12.1994	-119.238	13.5863	-27.3115	-200.204	-24.1624	-34.6099	-205.17	-12.2615	-60.151	-182.097	7.04451	-79.4352	-186.836	-45.7331	-40.7333	-176.929	-40.0332	-68.2465	-146.447	-13.5147	-70.8627	-159.42	-46.8296	-34.0475	-136.969	-28.2066	-50.0754	-124.363	-9.31016	-25.412	-137.881	-48.3029	-17.0845	-117.378	-25.0947	-18.3367	-119.455	-11.7028	9.93979	-172.107	-60.8599	17.8229	-174.71	-60.4199	49.3988	-194.343	-37.3585	32.7211	
322	2.68333	-171.814	10.6245	38.3542	-149.509	26.5991	8.99438	-130.742	31.7539	-14.0807	-116.03	7.03528	-27.8805	-199.533	-10.4177	-36.6352	-196.539	0.197879	-62.8884	-168.856	14.3523	-71.4507	-192.088	-31.0655	-41.2839	-177.792	-27.3928	-69.2182	-143.653	-2.67129	-59.7773	-165.005	-42.9316	-36.8053	-143.383	-28.5931	-52.7407	-129.458	-13.3108	-28.1765	-145.557	-46.7929	-24.572	-121.244	-31.4097	-26.5219	-120.561	-18.9159	-2.73772	-179.338	-49.5409	17.5041	-176.907	-52.6151	46.1892	-193.322	-25.7029	28.2574	
